<svg width="38" height="43" viewBox="0 0 38 43" fill="none" xmlns="http://www.w3.org/2000/svg">
<path d="M31.513 21.3466C32.997 19.8649 35.403 19.8649 36.887 21.3466C38.371 22.8283 38.371 25.2306 36.887 26.7123L21.687 41.8887C20.203 43.3704 17.797 43.3704 16.313 41.8887L1.11299 26.7123C-0.370998 25.2306 -0.370998 22.8283 1.11299 21.3466C2.59699 19.8649 5.00302 19.8649 6.48701 21.3466L19 33.8402L31.513 21.3466Z" fill="white"/>
<path d="M31.513 1.11127C32.997 -0.370422 35.403 -0.370422 36.887 1.11127C38.371 2.59297 38.371 4.99527 36.887 6.47696L21.687 21.6534C20.203 23.1351 17.797 23.1351 16.313 21.6534L1.11299 6.47696C-0.370997 4.99527 -0.370997 2.59297 1.11299 1.11127C2.59699 -0.370424 5.00302 -0.370423 6.48701 1.11127L19 13.6049L31.513 1.11127Z" fill="white"/>
</svg>
