<svg width="33" height="33" viewBox="0 0 33 33" fill="none" xmlns="http://www.w3.org/2000/svg">
<path d="M13.8017 7.30974L14.6941 8.90876C15.4994 10.3518 15.1761 12.2448 13.9077 13.5132C13.9077 13.5132 13.9077 13.5132 13.9077 13.5132C13.9076 13.5133 12.3693 15.0519 15.1587 17.8413C17.9474 20.63 19.486 19.0931 19.4868 19.0923C19.4868 19.0923 19.4868 19.0923 19.4868 19.0922C20.7552 17.8239 22.6482 17.5006 24.0912 18.3059L25.6903 19.1983C27.8693 20.4144 28.1266 23.4702 26.2113 25.3855C25.0604 26.5364 23.6506 27.4319 22.092 27.491C19.4683 27.5905 15.0126 26.9264 10.5431 22.4569C6.07355 17.9874 5.40955 13.5317 5.50901 10.908C5.56809 9.34945 6.4636 7.93957 7.61448 6.78869C9.52979 4.87339 12.5856 5.13073 13.8017 7.30974Z" fill="#45606F"/>
<path d="M18.2318 2.58513C18.3228 2.02291 18.8543 1.64152 19.4165 1.73254C19.4513 1.7392 19.5633 1.76013 19.622 1.7732C19.7393 1.79933 19.903 1.83956 20.107 1.89899C20.5151 2.01785 21.0852 2.21366 21.7694 2.52735C23.1393 3.15538 24.9623 4.25401 26.854 6.14574C28.7457 8.03746 29.8444 9.86046 30.4724 11.2303C30.7861 11.9146 30.9819 12.4846 31.1007 12.8927C31.1602 13.0968 31.2004 13.2604 31.2265 13.3778C31.2396 13.4364 31.2491 13.4835 31.2558 13.5183L31.2637 13.5612C31.3547 14.1235 30.9768 14.6769 30.4146 14.7679C29.854 14.8587 29.3258 14.4792 29.2326 13.9196C29.2297 13.9045 29.2218 13.8642 29.2134 13.8261C29.1964 13.75 29.167 13.6292 29.1205 13.4695C29.0275 13.15 28.8659 12.6752 28.5975 12.0899C28.0615 10.9207 27.0976 9.30621 25.3956 7.60415C23.6935 5.90209 22.079 4.93822 20.9098 4.4022C20.3245 4.13386 19.8497 3.97225 19.5302 3.8792C19.3705 3.83269 19.1698 3.78661 19.0936 3.76965C18.5341 3.67639 18.141 3.14575 18.2318 2.58513Z" fill="#45606F"/>
<path fill-rule="evenodd" clip-rule="evenodd" d="M18.5429 7.32815C18.6994 6.78052 19.2701 6.46342 19.8178 6.61988L19.5345 7.61145C19.8178 6.61988 19.8178 6.61988 19.8178 6.61988L19.8197 6.62045L19.8219 6.62106L19.8264 6.6224L19.8371 6.62558L19.8643 6.63406C19.885 6.64069 19.9109 6.64932 19.9418 6.66028C20.0035 6.68219 20.0852 6.71335 20.1853 6.75626C20.3856 6.84211 20.6593 6.97468 20.9955 7.17366C21.6685 7.57197 22.5873 8.23359 23.6666 9.31293C24.746 10.3923 25.4076 11.311 25.8059 11.984C26.0049 12.3202 26.1374 12.594 26.2233 12.7943C26.2662 12.8944 26.2974 12.976 26.3193 13.0377C26.3302 13.0686 26.3389 13.0945 26.3455 13.1152L26.354 13.1424L26.3571 13.1531L26.3585 13.1577L26.3591 13.1598C26.3591 13.1598 26.3597 13.1618 25.3681 13.4451L26.3597 13.1618C26.5161 13.7094 26.199 14.2802 25.6514 14.4367C25.1084 14.5918 24.5427 14.2814 24.3806 13.7423L24.3755 13.7275C24.3682 13.7068 24.353 13.6661 24.3276 13.6067C24.2767 13.488 24.1844 13.2938 24.0309 13.0345C23.7244 12.5165 23.1706 11.7338 22.2082 10.7713C21.2458 9.8089 20.4631 9.25518 19.945 8.9486C19.6857 8.79513 19.4915 8.70287 19.3728 8.65199C19.3134 8.62653 19.2727 8.61136 19.2521 8.60403L19.2373 8.59895C18.6982 8.43687 18.3878 7.87113 18.5429 7.32815Z" fill="#45606F"/>
</svg>
